<?xml version="1.0" standalone="no"?>
<!DOCTYPE svg PUBLIC "-//W3C//DTD SVG 20010904//EN"
 "http://www.w3.org/TR/2001/REC-SVG-20010904/DTD/svg10.dtd">
<svg version="1.0" xmlns="http://www.w3.org/2000/svg"
 width="512.000000pt" height="512.000000pt" viewBox="0 0 512.000000 512.000000"
 preserveAspectRatio="xMidYMid meet">
<metadata>
Created by potrace 1.14, written by Peter Selinger 2001-2017
</metadata>
<g transform="translate(0.000000,512.000000) scale(0.100000,-0.100000)"
fill="#000000" stroke="none">
<path d="M675 4420 c-11 -4 -23 -6 -27 -3 -5 2 -8 -1 -8 -7 0 -6 -3 -9 -8 -6
-11 7 -36 -16 -49 -45 -8 -19 -11 -441 -11 -1625 l0 -1599 33 -32 c21 -21 45
-33 62 -34 15 0 121 0 236 1 l207 1 0 -185 0 -186 1349 0 1349 0 59 -47 c32
-26 60 -50 63 -53 3 -3 25 -21 50 -40 54 -41 44 -33 155 -121 50 -39 99 -78
110 -88 11 -9 38 -30 60 -46 22 -17 46 -36 54 -43 28 -27 116 -88 141 -99 34
-13 88 -8 109 11 10 9 20 13 24 10 3 -4 9 5 13 20 3 14 9 26 13 26 4 0 7 9 7
20 0 11 -4 20 -8 20 -4 0 -8 5 -8 11 0 13 -33 46 -97 97 -23 19 -52 42 -65 53
-13 10 -27 22 -33 27 -5 4 -53 41 -105 82 -118 92 -108 84 -155 125 l-40 35
158 0 157 0 0 184 0 184 64 4 c50 3 71 10 100 32 20 15 34 32 31 37 -4 5 -2 9
4 9 7 0 7 8 1 25 -5 14 -7 25 -4 25 3 0 -7 11 -23 24 -31 26 -79 40 -135 39
l-38 -1 0 1309 0 1309 -1680 0 -1680 0 0 -1308 0 -1308 -142 0 -143 1 -1 1535
c0 844 -2 1542 -5 1549 -7 24 -53 68 -66 63 -7 -2 -13 0 -13 4 0 11 -39 14
-65 4z"/>
</g>
</svg>
